<svg width="20" height="20" viewBox="0 0 20 20" fill="none" xmlns="http://www.w3.org/2000/svg">
<path fill-rule="evenodd" clip-rule="evenodd" d="M15.625 6.56243C15.625 5.35524 14.645 4.37524 13.4375 4.37524H6.5625C5.355 4.37524 4.375 5.35524 4.375 6.56274V13.4377C4.375 14.6449 5.355 15.6252 6.5625 15.6252H13.4375C14.645 15.6252 15.625 14.6449 15.625 13.4377V6.56243ZM15 6.56243V13.4374C15 14.2999 14.3 15.0002 13.4375 15.0002H6.5625C5.7 15.0002 5 14.3002 5 13.4377V6.56243C5 5.69993 5.7 4.99993 6.5625 4.99993H13.4375C14.3 4.99993 15 5.69993 15 6.56243Z" fill="black"/>
<path fill-rule="evenodd" clip-rule="evenodd" d="M18.125 5.9375C18.125 3.69563 16.3047 1.875 14.0625 1.875H5.9375C3.69531 1.875 1.875 3.69594 1.875 5.9375V14.0625C1.875 16.305 3.69531 18.125 5.9375 18.125H14.0625C16.3047 18.125 18.125 16.305 18.125 14.0625V5.9375ZM17.5 5.9375V14.0625C17.5 15.96 15.96 17.5 14.0625 17.5H5.9375C4.04 17.5 2.5 15.96 2.5 14.0625V5.9375C2.5 4.04062 4.04 2.5 5.9375 2.5H14.0625C15.96 2.5 17.5 4.04031 17.5 5.9375Z" fill="black"/>
<path fill-rule="evenodd" clip-rule="evenodd" d="M10 7.1875C8.44781 7.1875 7.1875 8.44781 7.1875 10C7.1875 11.5522 8.44781 12.8125 10 12.8125C11.5522 12.8125 12.8125 11.5522 12.8125 10C12.8125 8.44781 11.5522 7.1875 10 7.1875ZM10 7.8125C11.2075 7.8125 12.1875 8.79281 12.1875 10C12.1875 11.2075 11.2075 12.1875 10 12.1875C8.79281 12.1875 7.8125 11.2075 7.8125 10C7.8125 8.79281 8.79281 7.8125 10 7.8125ZM13.125 5.9375C12.6075 5.9375 12.1875 6.3575 12.1875 6.875C12.1875 7.3925 12.6075 7.8125 13.125 7.8125C13.6425 7.8125 14.0625 7.3925 14.0625 6.875C14.0625 6.3575 13.6425 5.9375 13.125 5.9375ZM13.125 6.5625C13.2079 6.5625 13.2874 6.59544 13.3461 6.65407C13.4047 6.71271 13.4377 6.79223 13.4377 6.87516C13.4377 6.95808 13.4047 7.0376 13.3461 7.09624C13.2874 7.15487 13.2079 7.18781 13.125 7.18781C13.0421 7.18781 12.9626 7.15489 12.904 7.09628C12.8454 7.03768 12.8125 6.95819 12.8125 6.87531C12.8125 6.79243 12.8454 6.71295 12.904 6.65434C12.9626 6.59574 13.0421 6.5625 13.125 6.5625Z" fill="black"/>
</svg>
