<svg width="36" height="36" viewBox="0 0 36 36" fill="none" xmlns="http://www.w3.org/2000/svg">
<path d="M18.0028 0C8.06954 0 0 8.064 0 17.9972C0 27.9305 8.06954 36 18.0028 36C27.936 36 36 27.9305 36 17.9972C36 8.064 27.936 0 18.0028 0ZM18.0028 1.38462C20.1848 1.38316 22.3457 1.81186 24.3619 2.64621C26.3781 3.48056 28.21 4.70418 29.7529 6.24709C31.2958 7.79 32.5194 9.62194 33.3538 11.6381C34.1881 13.6543 34.6168 15.8152 34.6154 17.9972C34.6154 27.1814 27.1869 34.6126 18.0028 34.6126C8.81862 34.6126 1.38462 27.1814 1.38462 17.9972C1.38462 8.81308 8.81862 1.38462 18.0028 1.38462ZM12.924 9.69231C12.8013 9.69231 12.6837 9.74103 12.597 9.82776C12.5103 9.91449 12.4615 10.0321 12.4615 10.1548V11.0769H13.8462V10.1548C13.8462 10.0321 13.7974 9.91449 13.7107 9.82776C13.624 9.74103 13.5063 9.69231 13.3837 9.69231H12.924ZM21.2317 9.69231C21.109 9.69231 20.9914 9.74103 20.9047 9.82776C20.818 9.91449 20.7692 10.0321 20.7692 10.1548V11.0769H22.1538V10.1548C22.1538 10.0321 22.1051 9.91449 22.0184 9.82776C21.9317 9.74103 21.814 9.69231 21.6914 9.69231H21.2317ZM11.0769 12.4615V13.8462H23.5385V12.4615H11.0769ZM11.0769 15.2308V24.9231H23.5385V15.2308H11.0769ZM12.4615 16.6154H13.8462V18H12.4615V16.6154ZM15.2308 16.6154H16.6154V18H15.2308V16.6154ZM18 16.6154H19.3846V18H18V16.6154ZM20.7692 16.6154H22.1538V18H20.7692V16.6154ZM12.4615 19.3846H13.8462V20.7692H12.4615V19.3846ZM15.2308 19.3846H16.6154V20.7692H15.2308V19.3846ZM18 19.3846H19.3846V20.7692H18V19.3846ZM20.7692 19.3846H22.1538V20.7692H20.7692V19.3846ZM12.4615 22.1538H13.8462V23.5385H12.4615V22.1538ZM15.2308 22.1538H16.6154V23.5385H15.2308V22.1538ZM18 22.1538H19.3846V23.5385H18V22.1538Z" fill="black"/>
</svg>
