<svg width="197" height="54" viewBox="0 0 197 54" fill="none" xmlns="http://www.w3.org/2000/svg">
<path d="M172.148 3.95541C173.479 5.60116 177.615 11.9784 172.528 21.8529C175.619 20.223 179.581 23.8785 174.446 27.9296C178.82 26.901 185.033 27.3282 188.345 32.0914C192.624 33.12 195.699 36.2058 196.745 40.605C197.537 43.9598 196.443 47.8685 194.05 50.5903C193.702 50.9859 193.321 51.3657 192.909 51.7138C190.199 54.0242 186.792 54.5939 183.226 53.3596C183.052 53.2963 182.909 53.1697 182.83 52.9956C182.75 52.8215 182.75 52.6316 182.83 52.4576L182.956 52.1411C183.067 51.8562 183.384 51.7138 183.67 51.8246C186.697 52.9007 189.597 52.4417 191.879 50.4953C194.573 48.2008 195.968 44.1972 195.207 40.9531C194.161 36.5381 190.912 33.7688 186.269 33.3257C183.844 33.1042 179.644 33.12 171.213 35.9051C168.423 36.8229 163.431 38.4687 158.407 38.6744C161.529 40.8265 163.209 43.58 163.637 44.9251C164.715 48.3432 163.019 51.5239 159.231 51.7138C164.049 50.5111 163.796 44.482 157.329 41.1747C149.564 37.0287 136.219 41.6811 130.815 25.8882C130.863 26.2205 130.91 26.5054 130.958 26.7585C131.164 28.1036 131.1 30.7147 130.054 32.0123C127.408 35.3038 122.859 32.0439 123.715 26.5528C123.778 26.1889 123.889 25.8091 123.984 25.4293C121.353 27.9929 118.136 27.8821 117.138 27.3282C118.612 27.439 120.038 26.3788 120.72 25.5875C121.781 24.3374 122.986 21.9795 123.842 20.5553C124.444 19.5742 125.823 17.5012 127.011 16.2827C129.357 13.8616 134.587 11.5986 139.96 13.7191C140.879 14.0831 142.131 14.5737 143.24 15.9504C144.587 17.612 143.589 19.7483 141.846 19.0995C139.975 18.4032 140.419 16.1561 139.373 15.3016C137.757 13.9565 132.368 14.3679 131.037 18.9887C130.45 21.0775 130.704 23.7044 132.447 26.4579C136.045 32.2022 143.415 35.5095 148.819 35.6203C151.069 35.6519 154.223 35.2563 156.236 33.4681C157.916 31.9806 158.677 29.7969 157.979 28.1353C157.282 26.4895 155.887 27.708 155.38 26.7427C154.92 25.8724 156.569 24.7014 158.074 26.7902C159.247 28.4201 159.501 31.585 156.759 34.0695C155.443 35.2563 153.859 35.8102 152.21 36.0634C158.375 35.3829 166.411 31.1419 170.785 22.8815C172.908 18.8621 173.907 13.8616 173.162 9.87378C172.845 8.06978 172.1 6.32909 170.943 4.9207C169.818 3.4965 168.265 2.38877 166.569 1.85074C163.336 0.806319 161.086 2.13558 160.895 2.16723C160.769 2.26218 156.347 4.28772 156.806 9.24079C156.933 10.6017 157.488 11.8044 158.201 12.6589C159.517 14.3046 161.513 15.3807 163.035 15.3174C161.387 15.8554 159.215 14.8743 157.631 13.1653C156.743 12.2633 156.014 10.9182 155.808 9.35157C155.586 7.78494 155.856 6.0126 156.727 4.39849C158.074 1.89822 160.119 1.04369 160.246 0.948741C160.42 0.901268 163.146 -0.760303 167.013 0.426536C169.026 1.02787 170.848 2.27801 172.179 3.92376L172.148 3.95541ZM130.165 17.8177C127.677 20.1755 125.363 23.6569 124.872 26.7585C124.19 31.047 127.297 33.5156 129.103 31.2844C129.769 30.4615 129.975 28.3726 129.753 26.9484C129.468 25.1286 128.834 21.125 130.165 17.8019V17.8177ZM172.924 29.6228C170.642 30.4931 168.471 31.6008 166.347 32.6611C164.509 33.5947 162.623 34.5442 160.658 35.3671C159.374 35.9051 157.583 36.5381 155.602 36.9654C161.735 37.3768 168.059 35.288 170.706 34.4176C179.438 31.5375 183.844 31.5217 186.411 31.7591C186.459 31.7591 186.506 31.7749 186.554 31.7749C182.877 27.8663 176.554 28.2144 172.924 29.607V29.6228ZM171.403 24.5431C169.881 26.7585 168.106 29.3379 165.365 31.7749C165.571 31.68 165.777 31.585 165.983 31.4901C168.17 30.3982 170.69 29.1006 172.877 27.6131C178.693 23.6728 174.176 20.5079 171.403 24.5589V24.5431Z" fill="#C9B993"/>
<path d="M120.704 27.3915C119.452 27.8504 118.865 27.2966 118.295 26.5845C118.105 26.3629 117.756 25.3343 117.645 25.0811C117.471 24.7172 117.169 24.4007 116.789 24.2741C115.949 24.0051 115.347 24.7805 115.537 25.5559C115.981 27.3915 118.865 28.3568 120.704 27.3757V27.3915Z" fill="#7D919E"/>
<path d="M134.064 26.2205C132.447 24.9862 131.813 22.4068 131.417 19.416C132.416 23.3404 134.492 23.0556 136.029 24.1C137.994 25.4451 135.934 27.6605 134.064 26.2205Z" fill="#7D919E"/>
<path d="M159.77 38.9434C163.811 39.2757 163.875 41.3646 165.159 42.6938C166.807 44.4029 168.661 42.0134 166.918 40.4151C165.444 39.0384 162.765 38.8327 159.754 38.9434H159.77Z" fill="#7D919E"/>
<path d="M156.775 50.8909C156.252 50.2896 156.41 49.3243 157.282 49.1819C157.678 49.1186 158.09 49.2452 158.423 49.4984C158.645 49.6566 159.437 50.4004 159.707 50.527C160.531 50.8909 161.054 51.0017 161.941 50.0206C160.737 51.9512 158.011 52.331 156.775 50.9068V50.8909Z" fill="#7D919E"/>
<path d="M170.325 19.2735C170.927 21.2041 169.977 23.7044 168.566 26.3629C170.024 22.5809 168.154 21.6156 167.504 19.8907C166.68 17.6594 169.628 17.0423 170.325 19.2735Z" fill="#7D919E"/>
<path d="M180.484 51.3973C181.704 53.0114 184.208 54.1033 187.029 53.9609C182.798 53.2646 183.654 50.9859 182.608 49.4509C181.261 47.4887 179.042 49.53 180.468 51.3973H180.484Z" fill="#7D919E"/>
<path d="M30.0188 0.458183C33.9017 -0.728656 36.6118 0.932922 36.7861 0.980396C36.9129 1.09117 38.9574 1.92987 40.3045 4.43014C41.1761 6.04424 41.4456 7.81658 41.2237 9.38321C41.0177 10.9498 40.2886 12.2949 39.4011 13.1969C37.8163 14.906 35.6292 15.8871 33.9968 15.3491C35.5182 15.4124 37.4993 14.3363 38.8306 12.6905C39.5596 11.8202 40.0984 10.6333 40.2252 9.27244C40.7007 4.31937 36.2631 2.29383 36.1363 2.19889C35.962 2.16724 33.6957 0.837974 30.4626 1.88239C28.7668 2.42043 27.2137 3.52814 26.0884 4.95235C24.9315 6.36073 24.2024 8.10143 23.8696 9.90542C23.1248 13.8774 24.1074 18.8938 26.2469 22.9132C30.6211 31.1578 38.6562 35.3987 44.8213 36.095C43.173 35.826 41.5882 35.288 40.2728 34.1011C37.531 31.6167 37.7846 28.4518 38.9574 26.8218C40.463 24.733 42.127 25.904 41.6516 26.7744C41.1444 27.7555 39.7498 26.5212 39.0524 28.1669C38.3551 29.8127 39.1158 32.0123 40.7958 33.4998C42.8085 35.2721 45.9782 35.6836 48.2129 35.6519C53.6172 35.5411 60.9867 32.2497 64.5843 26.4895C66.3276 23.7202 66.5812 21.1092 65.9948 19.0678C64.6477 14.3838 59.2592 13.9723 57.6585 15.3174C56.6284 16.1719 57.0563 18.419 55.1862 19.1153C53.4428 19.7641 52.4444 17.6278 53.7915 15.9662C54.9009 14.6053 56.1371 14.0989 57.0721 13.735C62.4448 11.6145 67.6589 13.8774 70.0203 16.2985C71.209 17.5328 72.5878 19.59 73.19 20.5711C74.0458 22.0112 75.2503 24.3532 76.3122 25.6033C76.9937 26.3946 78.42 27.4548 79.8939 27.344C78.8955 27.8979 75.6624 28.0087 73.0474 25.4451C73.1425 25.8249 73.2693 26.2047 73.3168 26.5686C74.1885 32.0598 69.64 35.3038 66.9774 32.0281C65.9314 30.7305 65.868 28.1194 66.0741 26.7744C66.1216 26.5212 66.1533 26.2363 66.2167 25.904C60.8124 41.6969 47.468 37.0603 39.6864 41.1905C33.2202 44.482 32.9825 50.527 37.8004 51.7296C34.0126 51.5397 32.3169 48.359 33.3945 44.9409C33.8225 43.6117 35.5024 40.8424 38.6245 38.6902C33.5847 38.4845 28.5925 36.8388 25.819 35.9209C17.3718 33.1358 13.1719 33.1042 10.763 33.3415C6.11936 33.7688 2.87043 36.5539 1.82443 40.969C1.06371 44.213 2.45837 48.2166 5.15261 50.5111C7.43478 52.4576 10.3351 52.9165 13.3621 51.8404C13.6474 51.7296 13.9643 51.8721 14.0753 52.1569L14.2021 52.4734C14.2655 52.6475 14.2655 52.8374 14.2021 53.0114C14.1228 53.1855 13.9802 53.3121 13.8059 53.3754C10.2083 54.5939 6.80085 54.0242 4.09076 51.7138C3.6787 51.3657 3.29834 50.9859 2.94967 50.5903C0.556556 47.8526 -0.536987 43.944 0.255435 40.5892C1.30143 36.19 4.37603 33.1042 8.65512 32.0756C11.9833 27.3282 18.18 26.8851 22.5542 27.9137C17.4193 23.8627 21.3814 20.2072 24.4719 21.8371C19.3845 11.9626 23.521 5.60115 24.8522 3.93958C26.1835 2.30965 28.0061 1.04369 30.0188 0.442363V0.458183ZM67.2469 26.9643C67.025 28.3885 67.2468 30.4615 67.8966 31.3002C69.7034 33.5314 72.8097 31.047 72.1282 26.7744C71.6369 23.6728 69.323 20.1914 66.8348 17.8335C68.1661 21.1408 67.5321 25.1603 67.2469 26.9801V26.9643ZM10.446 31.7907C10.446 31.7907 10.5411 31.7749 10.5886 31.7749C13.1561 31.5375 17.5619 31.5534 26.2944 34.4334C28.957 35.3038 35.2805 37.3926 41.398 36.9812C39.417 36.5539 37.6419 35.9209 36.3424 35.3829C34.3772 34.56 32.4753 33.6106 30.6528 32.6769C28.5449 31.6167 26.3578 30.509 24.0757 29.6386C20.4464 28.246 14.1228 27.8979 10.446 31.8066V31.7907ZM24.1232 27.5972C26.3103 29.0847 28.8302 30.3824 31.0173 31.4742C31.2233 31.5692 31.4293 31.6641 31.6354 31.7591C28.8777 29.3379 27.1186 26.7585 25.5971 24.5273C22.8236 20.492 18.3068 23.6411 24.1232 27.5814V27.5972Z" fill="#C9B993"/>
<path d="M76.2805 27.3915C77.5325 27.8504 78.1189 27.2966 78.6894 26.5845C78.8796 26.3629 79.2283 25.3343 79.3392 25.0811C79.5136 24.7172 79.8147 24.4007 80.195 24.2741C81.035 24.0051 81.6214 24.7805 81.4471 25.5559C81.0033 27.3915 78.1189 28.3568 76.2805 27.3757V27.3915Z" fill="#7D919E"/>
<path d="M62.9361 26.2205C64.5526 24.9862 65.2024 22.4068 65.5828 19.416C64.5843 23.3404 62.5082 23.0556 60.9709 24.1C59.0056 25.4451 61.0659 27.6605 62.9361 26.2205Z" fill="#7D919E"/>
<path d="M37.2299 38.9434C33.1885 39.2757 33.1251 41.3646 31.8414 42.6938C30.1932 44.4029 28.3389 42.0134 30.0664 40.4151C31.5561 39.0384 34.2187 38.8327 37.2299 38.9434Z" fill="#7D919E"/>
<path d="M40.2252 50.8909C40.7482 50.2896 40.5897 49.3243 39.7181 49.1819C39.3219 49.1186 38.9098 49.2452 38.577 49.4984C38.3551 49.6566 37.5627 50.4004 37.2933 50.527C36.4692 50.8909 35.9462 51.0017 35.0586 50.0206C36.2631 51.9512 38.9891 52.331 40.2252 50.9068V50.8909Z" fill="#7D919E"/>
<path d="M26.659 19.2735C26.0567 21.2041 27.0076 23.7044 28.4181 26.3629C26.9601 22.5809 28.8302 21.6156 29.48 19.8907C30.3041 17.6594 27.3563 17.0423 26.659 19.2735Z" fill="#7D919E"/>
<path d="M16.5159 51.3973C15.2798 53.0114 12.7916 54.1033 9.95469 53.9609C14.1862 53.2646 13.3304 50.9859 14.3764 49.4509C15.7235 47.4887 17.9423 49.53 16.5159 51.3973Z" fill="#7D919E"/>
<path d="M111.385 48.5964C110.561 50.4162 107.629 50.7643 106.266 50.3054C101.131 48.5331 100.655 43.1053 99.8947 38.7694C100.798 42.9312 102.24 48.09 106.551 49.261C107.343 49.4667 108.358 49.3243 108.77 49.0236C109.435 48.5489 108.706 48.0583 109.039 47.3462C109.372 46.6341 110.45 46.5708 111.036 46.9506C111.432 47.2196 111.733 47.7893 111.369 48.5964H111.385Z" fill="#C9B993"/>
<path d="M85.6152 48.5964C86.4393 50.4162 89.3713 50.7643 90.7184 50.3054C95.8533 48.5331 96.3288 43.1053 97.0895 38.7694C96.1861 42.9312 94.7439 48.09 90.4331 49.261C89.6407 49.4667 88.6264 49.3243 88.2144 49.0236C87.5487 48.5489 88.2778 48.0583 87.9449 47.3462C87.6121 46.6341 86.5344 46.5708 85.948 46.9506C85.5518 47.2196 85.2507 47.7893 85.6152 48.5964Z" fill="#C9B993"/>
<path d="M91.1463 41.1747C91.8595 39.2757 94.1575 37.9148 96.8993 36.6805C93.4126 38.7694 94.3002 40.6683 93.7455 42.4248C93.0164 44.6877 90.3063 43.3585 91.1463 41.1589V41.1747Z" fill="#7D919E"/>
<path d="M105.838 41.1747C105.125 39.2757 102.827 37.9148 100.085 36.6805C103.572 38.7694 102.684 40.6683 103.239 42.4248C103.968 44.6877 106.678 43.3585 105.838 41.1589V41.1747Z" fill="#7D919E"/>
<path d="M101.147 48.9762C100.021 51.3815 96.9944 51.3815 95.8692 48.9762C94.5062 46.0961 95.7899 42.0292 97.3906 37.5983C96.408 41.8393 97.248 43.675 98.5 45.2416C99.7679 43.675 100.592 41.8393 99.6094 37.5983C101.226 42.0292 102.494 46.0961 101.131 48.9762H101.147Z" fill="#7D919E"/>
<path d="M78.4992 35.6836C77.58 33.9112 79.1173 31.3951 80.3218 30.6197C84.8862 27.6764 89.4664 30.683 93.3493 32.7719C89.5139 30.9046 84.5534 28.8474 80.9716 31.5059C80.3218 31.9965 79.8147 32.8826 79.783 33.4048C79.7513 34.2277 80.5912 33.9429 80.9399 34.655C81.2886 35.3671 80.6705 36.2374 80.0207 36.459C79.5611 36.6172 78.9272 36.4906 78.5151 35.6994L78.4992 35.6836Z" fill="#C9B993"/>
<path d="M94.4428 15.4598C92.5093 14.9851 90.4173 17.0581 89.9418 18.419C88.151 23.5462 92.1448 27.2807 95.0926 30.5564C92.3825 27.2649 89.2128 22.9448 90.9561 18.8463C91.2731 18.1025 92.018 17.3904 92.5251 17.248C93.3017 17.0265 93.2383 17.8968 94.0149 18.0709C94.7915 18.2449 95.5046 17.4379 95.5522 16.7574C95.5997 16.2827 95.3303 15.6814 94.4586 15.4757L94.4428 15.4598Z" fill="#C9B993"/>
<path d="M96.8676 24.4007C97.9136 26.1414 97.5808 28.7841 96.8359 31.6958C97.3431 27.6764 95.3145 27.1858 94.2685 25.6666C92.9372 23.7044 95.6631 22.391 96.8676 24.4007Z" fill="#7D919E"/>
<path d="M87.7864 35.9209C89.72 36.5223 92.2082 35.5886 94.8865 34.1802C91.0988 35.6203 90.132 33.753 88.4045 33.1042C86.1857 32.2655 85.536 35.2247 87.7864 35.9209Z" fill="#7D919E"/>
<path d="M84.5375 27.4073C83.3489 25.0337 85.219 22.66 87.8023 23.2613C90.9086 23.9734 93.3176 27.4865 95.8058 31.5059C93.0798 28.1036 91.1146 27.6289 89.1177 27.6447C89.5615 29.607 90.4965 31.3951 94.4428 33.2466C89.9577 31.7749 85.9639 30.2558 84.5534 27.4073H84.5375Z" fill="#7D919E"/>
<path d="M118.501 35.6836C119.42 33.9112 117.883 31.3951 116.678 30.6197C112.114 27.6764 107.534 30.683 103.651 32.7719C107.486 30.9046 112.447 28.8474 116.028 31.5059C116.678 31.9965 117.185 32.8826 117.217 33.4048C117.249 34.2277 116.409 33.9429 116.06 34.655C115.711 35.3671 116.33 36.2374 116.979 36.459C117.439 36.6172 118.073 36.4906 118.485 35.6994L118.501 35.6836Z" fill="#C9B993"/>
<path d="M102.541 15.4598C104.475 14.9851 106.567 17.0581 107.042 18.419C108.833 23.5462 104.839 27.2807 101.892 30.5564C104.602 27.2649 107.771 22.9448 106.028 18.8463C105.711 18.1025 104.966 17.3904 104.459 17.248C103.682 17.0265 103.746 17.8968 102.969 18.0709C102.193 18.2449 101.48 17.4379 101.432 16.7574C101.384 16.2827 101.654 15.6814 102.526 15.4757L102.541 15.4598Z" fill="#C9B993"/>
<path d="M100.132 24.4007C99.0864 26.1414 99.4192 28.7841 100.164 31.6958C99.6569 27.6764 101.686 27.1858 102.732 25.6666C104.063 23.7044 101.337 22.391 100.132 24.4007Z" fill="#7D919E"/>
<path d="M109.214 35.9209C107.28 36.5223 104.792 35.5886 102.113 34.1802C105.901 35.6203 106.868 33.753 108.595 33.1042C110.814 32.2655 111.464 35.2247 109.214 35.9209Z" fill="#7D919E"/>
<path d="M112.462 27.4073C113.651 25.0337 111.781 22.66 109.198 23.2613C106.091 23.9734 103.682 27.4865 101.194 31.5059C103.92 28.1036 105.885 27.6289 107.882 27.6447C107.439 29.607 106.503 31.3951 102.557 33.2466C107.042 31.7749 111.036 30.2558 112.447 27.4073H112.462Z" fill="#7D919E"/>
<path d="M96.3446 34.2594C96.3446 35.4462 97.3114 36.4115 98.5 36.4115C99.6886 36.4115 100.655 35.4462 100.655 34.2594C100.655 33.0725 99.6886 32.1072 98.5 32.1072C97.3114 32.1072 96.3446 33.0725 96.3446 34.2594Z" fill="#C9B993"/>
</svg>
