<svg width="154" height="46" viewBox="0 0 154 46" fill="none" xmlns="http://www.w3.org/2000/svg">
<path d="M68.6671 27.5998C69.2001 26.5918 71.0962 26.399 71.9777 26.6532C75.2986 27.6348 75.6061 30.6411 76.098 33.0426C75.5138 30.7375 74.5811 27.8802 71.7932 27.2317C71.2807 27.1177 70.6248 27.1966 70.3583 27.3631C69.9278 27.6261 70.3993 27.8978 70.184 28.2922C69.9688 28.6866 69.2718 28.7216 68.8926 28.5113C68.6363 28.3623 68.4416 28.0468 68.6773 27.5998L68.6671 27.5998Z" fill="#C9B993"/>
<path d="M85.3329 27.5998C84.7999 26.5918 82.9038 26.399 82.0325 26.6532C78.7117 27.6348 78.4042 30.6411 77.9122 33.0426C78.4964 30.7375 79.4291 27.8802 82.217 27.2317C82.7295 27.1177 83.3855 27.1966 83.652 27.3631C84.0825 27.6261 83.611 27.8978 83.8262 28.2922C84.0415 28.6866 84.7384 28.7216 85.1177 28.5113C85.3739 28.3623 85.5686 28.0468 85.3329 27.5998Z" fill="#C9B993"/>
<path d="M81.7558 31.7191C81.2946 32.7709 79.8084 33.5247 78.0352 34.2083C80.2901 33.0514 79.7161 31.9996 80.0749 31.0267C80.5463 29.7734 82.299 30.5096 81.7558 31.7279L81.7558 31.7191Z" fill="#7D919E"/>
<path d="M72.2544 31.7191C72.7157 32.7709 74.2019 33.5247 75.975 34.2083C73.7201 33.0514 74.2941 31.9996 73.9354 31.0267C73.4742 29.7734 71.7112 30.5096 72.2544 31.7279L72.2544 31.7191Z" fill="#7D919E"/>
<path d="M75.2986 27.3894C76.0263 26.0572 77.984 26.0572 78.7117 27.3894C79.5931 28.9846 78.7629 31.2371 77.7277 33.6912C78.3632 31.3423 77.82 30.3256 77.0102 29.4579C76.1903 30.3256 75.6573 31.3423 76.2928 33.6912C75.2473 31.2371 74.4274 28.9846 75.3088 27.3894L75.2986 27.3894Z" fill="#7D919E"/>
<path d="M89.935 34.7605C90.5294 35.7421 89.5352 37.1357 88.7563 37.5651C85.8044 39.1954 82.8423 37.5301 80.3311 36.3732C82.8115 37.4074 86.0196 38.5468 88.336 37.0743C88.7563 36.8026 89.0842 36.3118 89.1047 36.0226C89.1252 35.5668 88.582 35.7246 88.3565 35.3302C88.131 34.9358 88.5308 34.4537 88.951 34.331C89.2482 34.2434 89.6582 34.3135 89.9247 34.7517L89.935 34.7605Z" fill="#C9B993"/>
<path d="M79.6239 45.9616C80.8743 46.2246 82.2273 45.0764 82.5348 44.3227C83.693 41.4829 81.1101 39.4145 79.2037 37.6002C80.9563 39.4232 83.0062 41.816 81.8788 44.086C81.6738 44.4979 81.1921 44.8924 80.8641 44.9712C80.3619 45.0939 80.4029 44.6119 79.9006 44.5155C79.3984 44.4191 78.9372 44.8661 78.9064 45.2429C78.8757 45.5059 79.0499 45.8389 79.6136 45.9529L79.6239 45.9616Z" fill="#C9B993"/>
<path d="M78.0557 41.0009C77.3792 40.0368 77.5945 38.5731 78.0762 36.9604C77.7482 39.1866 79.0602 39.4583 79.7366 40.2997C80.5976 41.3865 78.8347 42.114 78.0557 41.0009Z" fill="#7D919E"/>
<path d="M83.939 34.6202C82.6885 34.2872 81.0793 34.8043 79.3472 35.5843C81.7968 34.7868 82.422 35.821 83.5392 36.1803C84.9742 36.6449 85.3944 35.0059 83.939 34.6202Z" fill="#7D919E"/>
<path d="M86.0299 39.3444C86.7986 40.659 85.5891 41.9737 83.9185 41.6407C81.9095 41.2463 80.3516 39.3005 78.7424 37.0743C80.5054 38.9587 81.7763 39.2217 83.0677 39.2129C82.7808 38.1261 82.176 37.1357 79.6239 36.1102C82.5245 36.9253 85.1074 37.7667 86.0196 39.3444L86.0299 39.3444Z" fill="#7D919E"/>
<path d="M64.065 34.7605C63.4706 35.7421 64.4648 37.1357 65.2437 37.5651C68.1956 39.1954 71.1577 37.5301 73.6689 36.3732C71.1885 37.4074 67.9804 38.5468 65.664 37.0743C65.2437 36.8026 64.9157 36.3118 64.8952 36.0226C64.8747 35.5668 65.418 35.7246 65.6435 35.3302C65.869 34.9358 65.4692 34.4537 65.049 34.331C64.7518 34.2433 64.3418 34.3135 64.0753 34.7517L64.065 34.7605Z" fill="#C9B993"/>
<path d="M74.3864 45.9616C73.1359 46.2246 71.783 45.0764 71.4755 44.3227C70.3173 41.4829 72.9002 39.4145 74.8066 37.6002C73.0539 39.4232 71.004 41.816 72.1314 44.086C72.3364 44.4979 72.8182 44.8924 73.1462 44.9712C73.6484 45.0939 73.6074 44.6119 74.1096 44.5155C74.6118 44.4191 75.0731 44.8661 75.1038 45.2429C75.1346 45.5059 74.9603 45.8389 74.3966 45.9529L74.3864 45.9616Z" fill="#C9B993"/>
<path d="M75.9443 41.0009C76.6208 40.0368 76.4055 38.5731 75.9238 36.9604C76.2518 39.1866 74.9398 39.4583 74.2634 40.2997C73.4024 41.3865 75.1653 42.114 75.9443 41.0009Z" fill="#7D919E"/>
<path d="M70.0713 34.6202C71.3217 34.2872 72.9309 34.8043 74.6631 35.5843C72.2134 34.7868 71.5882 35.821 70.471 36.1803C69.0361 36.6449 68.6159 35.0059 70.0713 34.6202Z" fill="#7D919E"/>
<path d="M67.9804 39.3444C67.2117 40.659 68.4211 41.9737 70.0918 41.6407C72.1007 41.2463 73.6586 39.3005 75.2678 37.0743C73.5049 38.9587 72.2339 39.2217 70.9425 39.2129C71.2295 38.1261 71.8342 37.1357 74.3864 36.1102C71.4857 36.9253 68.9028 37.7667 67.9906 39.3444L67.9804 39.3444Z" fill="#7D919E"/>
<path d="M78.3939 35.5405C78.3939 34.8832 77.7687 34.3485 77 34.3485C76.2313 34.3485 75.6061 34.8832 75.6061 35.5405C75.6061 36.1979 76.2313 36.7325 77 36.7325C77.7687 36.7325 78.3939 36.1979 78.3939 35.5405Z" fill="#C9B993"/>
<path d="M95.2545 35.6106C94.5063 35.9787 94.496 36.2767 94.619 36.7588C94.66 36.9166 95.0187 37.4337 95.0905 37.5739C95.2032 37.7755 95.2237 38.0209 95.1315 38.2225C94.9163 38.6782 94.2808 38.652 93.9733 38.3014C93.2456 37.46 93.8503 36.0313 95.2442 35.6106L95.2545 35.6106Z" fill="#7D919E"/>
<path d="M101.332 30.2029C101.281 31.3247 102.296 32.5167 103.618 33.7438C102.081 31.9207 103.075 31.1494 103.198 30.124C103.331 28.8181 101.384 28.9057 101.332 30.2029Z" fill="#7D919E"/>
<path d="M107.718 13.8218C107.872 12.5246 105.955 12.2004 105.883 13.515C105.832 14.5317 106.693 15.4257 104.858 17.0384C106.375 15.9867 107.585 14.9349 107.718 13.813L107.718 13.8218Z" fill="#7D919E"/>
<path d="M93.1533 21.561C91.8721 21.4207 90.6832 22.7004 90.4782 23.4716C89.7197 26.4078 92.5589 28.2045 94.6908 29.8172C92.7023 28.1782 90.3449 26.0046 91.1547 23.6382C91.3084 23.2087 91.7286 22.7705 92.0464 22.6653C92.5384 22.49 92.5589 22.9808 93.0611 23.0246C93.5736 23.0685 93.963 22.5864 93.9528 22.2008C93.9528 21.9378 93.7273 21.6311 93.1533 21.5697L93.1533 21.561Z" fill="#C9B993"/>
<path d="M84.4207 33.6912C83.7032 32.7797 84.4924 31.2897 85.2099 30.7901C87.926 28.8794 91.0829 30.2379 93.7376 31.1407C91.1342 30.3606 87.803 29.5455 85.6916 31.2283C85.3022 31.5351 85.0459 32.061 85.0664 32.3502C85.0972 32.806 85.6199 32.6044 85.8966 32.9637C86.1734 33.3318 85.8454 33.8577 85.4354 34.0155C85.1484 34.1206 84.7384 34.1031 84.4104 33.6912L84.4207 33.6912Z" fill="#C9B993"/>
<path d="M90.3962 33.2354C91.6876 33.4458 93.2148 32.7709 94.824 31.8243C92.4974 32.8585 91.7389 31.8944 90.5807 31.6403C89.0945 31.3247 88.8998 32.99 90.3962 33.2354Z" fill="#7D919E"/>
<path d="M95.3775 26.3201C96.177 27.2054 96.1565 28.6866 95.9002 30.3343C95.931 28.0906 94.578 27.9504 93.7991 27.1791C92.7946 26.1799 94.455 25.2859 95.3775 26.3201Z" fill="#7D919E"/>
<path d="M89.4737 26.2676C87.7621 26.101 86.7371 27.5297 87.6801 28.7567C88.8075 30.2292 91.4826 30.8164 94.4755 31.3423C91.8004 30.5797 91.0727 29.6507 90.6319 28.5989C91.9234 28.4587 93.2148 28.5989 95.2237 30.2905C93.3276 28.2484 91.5134 26.4691 89.4635 26.2676L89.4737 26.2676Z" fill="#7D919E"/>
<path d="M98.4831 11.8147C98.5651 12.2529 99.1186 12.5246 99.5491 12.2004C99.7438 12.0514 99.8566 11.8322 99.8668 11.6044C99.8873 11.4554 99.8361 10.8506 99.8873 10.6928C100.041 10.2108 100.205 9.95661 101.066 9.92155C99.6003 9.74626 98.2884 10.7717 98.4831 11.8059L98.4831 11.8147Z" fill="#7D919E"/>
<path d="M96.095 36.0927C97.1609 36.0927 98.8213 36.4082 99.8975 36.5572C100.636 36.6536 101.958 36.8377 103.054 36.7588C104.951 36.5923 108.804 35.1724 109.973 32.1486C110.178 31.6227 110.444 30.9216 110.229 29.9662C109.963 28.8093 108.487 28.4675 108.087 29.4403C107.656 30.4833 108.958 31.0881 108.958 31.8331C108.958 32.99 106.519 35.1373 103.669 34.0593C102.388 33.5685 101.189 32.5255 100.533 30.8076C99.2621 27.4771 100.267 24.1027 102.275 21.1403C102.45 20.9474 102.624 20.7634 102.767 20.6144C103.68 19.6503 105.186 18.4495 106.908 18.2216C108.343 18.0376 109.747 18.4933 110.28 19.3698C110.813 20.255 109.624 20.4128 109.901 20.965C110.147 21.4733 111.408 21.1841 110.998 19.808C110.68 18.73 109.204 17.5029 106.837 17.7922C105.689 17.9324 104.756 18.4145 103.926 19.0368C106.242 15.4608 105.033 12.0251 104.284 11.0171C103.034 9.34309 100.748 8.93992 99.0776 10.4737C101.671 8.85227 104.571 11.1048 103.536 15.0138C102.942 17.4591 100.451 19.9833 99.2416 22.2183C98.6061 23.4015 96.8227 27.0213 100.144 31.6929C100 31.5526 99.877 31.4299 99.7643 31.3247C99.1801 30.7638 97.8579 29.861 96.7817 29.8435C94.045 29.7997 93.7786 32.8848 96.8637 34.4625C97.0789 34.5676 97.3044 34.6553 97.5299 34.7429C95.1725 34.9445 93.8913 36.3556 93.7478 36.9779C94.3013 36.3118 95.4185 36.0839 96.095 36.0752L96.095 36.0927ZM97.2532 33.9103C94.8445 32.6745 94.8958 30.4833 96.7612 30.5096C97.4479 30.5184 98.5651 31.167 99.1801 31.7717C99.959 32.543 101.701 34.2258 103.895 34.8393C101.691 35.0585 99.0058 34.8043 97.2532 33.9191L97.2532 33.9103Z" fill="#C9B993"/>
<path d="M111.695 19.1069C110.721 18.5109 110.434 17.3715 107.82 17.6081C109.727 17.24 111.439 17.0822 112.546 17.687C113.837 18.3882 112.945 19.8694 111.695 19.1156L111.695 19.1069Z" fill="#7D919E"/>
<path d="M142.31 11.543C143.11 11.8235 143.161 12.1127 143.12 12.6123C143.11 12.7701 142.823 13.3222 142.782 13.4712C142.7 13.6816 142.71 13.927 142.843 14.1198C143.12 14.5405 143.745 14.4529 143.991 14.0672C144.586 13.1469 143.755 11.8059 142.31 11.543Z" fill="#7D919E"/>
<path d="M145.129 11.1311C144.534 10.6753 142.966 9.65862 140.793 9.70244C140.834 9.67615 140.886 9.65862 140.927 9.62356C143.745 7.70411 142.997 4.68032 140.291 5.0309C139.225 5.17113 138.026 6.1966 137.565 6.83641C136.755 7.95828 135.925 9.08016 134.111 9.97415C131.405 11.3064 128.699 9.51838 128.525 8.37022C128.402 7.63399 129.601 6.88024 129.017 5.8986C128.463 4.97831 127.059 5.48666 126.967 6.66112C126.895 7.63399 127.274 8.3001 127.551 8.79092C129.181 11.6569 133.219 12.6298 135.125 12.5772C136.232 12.5422 137.513 12.2004 138.221 12.0251C138.825 11.8673 139.584 11.5693 140.363 11.4466C142.044 11.1837 143.591 12.0426 144.063 12.3932C146.41 14.1023 146.81 17.6607 143.796 20.5355C140.476 23.4103 136.878 22.604 132.799 20.8335C133.752 21.0351 134.715 21.1928 135.679 21.2893C139.03 21.6135 141.316 20.255 141.726 18.2655C141.818 17.8009 141.808 16.8719 141.306 16.4775C140.927 16.1795 140.383 16.2496 140.25 16.8894C140.127 17.5029 140.875 17.8535 140.773 18.581C140.609 19.8343 138.733 21.0526 135.74 20.7634C133.567 20.553 131.353 20.0359 129.529 19.3172C126.454 17.8448 123.113 16.2321 119.402 15.4345C121.493 14.6983 121.319 11.7271 117.178 12.4721C119.638 10.8857 122.149 7.8531 120.663 4.53132C120.643 4.46996 120.591 4.42614 120.52 4.39985C120.458 4.37356 120.376 4.37355 120.315 4.39985L120.038 4.49626C119.935 4.53132 119.894 4.62773 119.925 4.71537C121.504 8.16863 118.193 11.3151 115.702 12.5071C114.329 13.1645 112.874 13.6991 111.469 14.2162C110.25 14.6632 108.989 15.1277 107.769 15.6799C106.345 16.311 104.131 17.4854 102.644 19.1069C102.111 19.6941 101.742 20.3251 101.394 21.0351C100.984 21.859 101.353 21.6837 101.763 21.1227C102.337 20.3251 103.567 19.2734 103.905 19.0368C105.945 17.3627 112.187 15.2066 116.379 15.5923C128.207 16.2496 136.581 27.9416 144.75 21.3243C148.583 17.9237 148.101 13.4099 145.119 11.1311L145.129 11.1311ZM117.64 14.9612C115.907 14.821 113.888 14.6544 111.541 14.9612C111.674 14.9086 111.808 14.8473 111.941 14.8034C113.396 14.26 115.077 13.6553 116.727 13.2521C121.104 12.1828 120.796 15.2241 117.64 14.9612ZM140.455 9.11521C138.856 10.202 136.232 10.7542 134.018 10.7893C136.099 9.93909 137.565 8.06346 138.221 7.21329C138.743 6.54718 139.748 5.77589 140.424 5.68825C142.259 5.4516 142.659 7.62523 140.465 9.11521L140.455 9.11521Z" fill="#C9B993"/>
<path d="M121.012 7.65152C120.981 5.40778 119.638 5.28507 118.829 4.53132C117.804 3.54968 119.433 2.6294 120.386 3.64609C121.206 4.51379 121.35 6.41571 121.012 7.65152Z" fill="#7D919E"/>
<path d="M146.636 1.45906e-05C147.927 1.47078e-05 148.921 1.38483 149.014 2.17364C149.352 5.16237 146.277 6.66112 143.93 8.03716C146.144 6.61729 148.788 4.70661 148.327 2.27005C148.235 1.82305 147.876 1.34977 147.589 1.20953C147.128 0.981654 147.035 1.47247 146.523 1.46371C146.01 1.46371 145.693 0.929065 145.754 0.552188C145.805 0.289249 146.062 0.00878071 146.636 0.00878076L146.636 1.45906e-05Z" fill="#C9B993"/>
<path d="M153.575 12.9629C154.425 12.1302 153.841 10.5701 153.206 10.0004C150.776 7.82682 147.456 8.84351 144.688 9.4658C147.384 8.95745 150.807 8.49293 152.662 10.3949C153.001 10.7367 153.185 11.2888 153.124 11.5693C153.021 12.0163 152.539 11.7621 152.211 12.0952C151.883 12.4282 152.14 12.9892 152.519 13.1908C152.785 13.331 153.195 13.3485 153.585 12.9716L153.575 12.9629Z" fill="#C9B993"/>
<path d="M147.702 11.8848C146.4 11.9637 144.965 11.1223 143.509 10.0267C145.672 11.2976 146.564 10.4211 147.743 10.2897C149.27 10.1319 149.219 11.8059 147.702 11.8936L147.702 11.8848Z" fill="#7D919E"/>
<path d="M143.745 4.50503C142.823 5.30261 142.638 6.7663 142.659 8.44034C142.946 6.21413 144.299 6.21413 145.19 5.53049C146.328 4.64526 144.821 3.58474 143.745 4.51379L143.745 4.50503Z" fill="#7D919E"/>
<path d="M149.618 5.0572C151.33 5.07473 152.15 6.591 151.033 7.71288C149.7 9.06263 146.964 9.36062 143.919 9.57097C146.687 9.08892 147.538 8.24752 148.112 7.24835C146.851 6.97665 145.549 6.97665 143.315 8.4491C145.488 6.6173 147.538 5.03967 149.608 5.0572L149.618 5.0572Z" fill="#7D919E"/>
<path d="M128.935 29.4666C127.746 29.6156 127.561 30.7025 125.88 30.2116C126.864 30.7813 127.674 31.0881 128.965 30.9128C130.472 30.7112 130.134 29.3264 128.924 29.4754L128.935 29.4666Z" fill="#7D919E"/>
<path d="M126.967 22.9633C126.434 19.957 123.687 16.5914 118.511 15.5397C116.922 15.2154 112.853 14.8385 110.014 15.4783C108.651 15.7851 107.677 16.1357 107.164 16.3811C106.611 16.644 106.611 16.7842 107.287 16.6002C107.995 16.4074 109.02 16.2321 110.014 16.1181C110.824 16.0217 111.603 15.9691 112.177 15.9691C114.893 15.9691 116.543 16.9595 117.332 17.4416C119.228 18.5898 120.458 20.8072 120.448 23.1035C120.448 24.2517 119.556 25.7329 120.274 26.9512C120.909 28.038 122.231 28.2747 123.267 27.5297C121.821 29.1774 119.32 29.7033 116.973 29.4579C116.645 29.4228 116.307 29.3615 115.959 29.2738C114.606 28.6778 114.503 27.6699 114.411 26.7847C114.339 26.0572 114.257 25.3122 113.355 25.1632C111.992 24.9353 111.603 26.3552 112.115 27.3982C112.956 29.1248 115.21 29.9399 116.881 30.1152C119.156 30.3519 121.34 29.8873 122.867 28.8444C123.492 28.4149 123.994 27.8978 124.363 27.3105C124.609 29.0459 125.45 30.5973 127.735 30.9128C125.45 30.308 127.448 25.6628 126.967 22.9721L126.967 22.9633ZM118.47 17.389C120.11 18.2742 121.463 19.4136 122.324 20.5443C123.789 22.4637 124.056 24.7776 123.554 25.9783C122.908 27.5297 121.534 27.6524 120.95 26.6532C120.397 25.7154 121.206 24.2692 121.206 23.0948C121.206 20.8861 120.151 18.73 118.47 17.389Z" fill="#C9B993"/>
<path d="M58.7353 35.6106C59.4835 35.9787 59.4937 36.2767 59.3707 36.7588C59.3297 36.9166 58.971 37.4337 58.8993 37.5739C58.7865 37.7755 58.766 38.0209 58.8583 38.2225C59.0735 38.6782 59.709 38.6519 60.0164 38.3014C60.7442 37.46 60.1395 36.0313 58.7455 35.6106L58.7353 35.6106Z" fill="#7D919E"/>
<path d="M52.6573 30.2029C52.7085 31.3247 51.6938 32.5167 50.3716 33.7438C51.909 31.9207 50.9148 31.1494 50.7918 30.124C50.6586 28.8181 52.606 28.9057 52.6573 30.2029Z" fill="#7D919E"/>
<path d="M46.2718 13.8218C46.118 12.5246 48.0347 12.2003 48.1065 13.515C48.1577 14.5317 47.2967 15.4257 49.1314 17.0384C47.6145 15.9867 46.405 14.9349 46.2718 13.813L46.2718 13.8218Z" fill="#7D919E"/>
<path d="M60.8364 21.561C62.1176 21.4207 63.3066 22.7004 63.5116 23.4716C64.27 26.4078 61.4309 28.2045 59.299 29.8172C61.2874 28.1782 63.6448 26.0046 62.8351 23.6382C62.6813 23.2087 62.2611 22.7705 61.9434 22.6653C61.4514 22.49 61.4309 22.9808 60.9287 23.0246C60.4162 23.0685 60.0267 22.5864 60.037 22.2008C60.037 21.9378 60.2624 21.6311 60.8364 21.5697L60.8364 21.561Z" fill="#C9B993"/>
<path d="M69.5793 33.6912C70.2968 32.7797 69.5076 31.2897 68.7901 30.7901C66.074 28.8794 62.9171 30.2379 60.2624 31.1407C62.8658 30.3606 66.197 29.5455 68.3084 31.2283C68.6876 31.5351 68.9541 32.061 68.9336 32.3502C68.9028 32.806 68.3801 32.6044 68.1034 32.9637C67.8266 33.3318 68.1546 33.8577 68.5646 34.0155C68.8516 34.1206 69.2616 34.1031 69.5896 33.6912L69.5793 33.6912Z" fill="#C9B993"/>
<path d="M63.5936 33.2354C62.3021 33.4458 60.7749 32.7709 59.1657 31.8243C61.4924 32.8585 62.2509 31.8944 63.4091 31.6403C64.8953 31.3247 65.09 32.99 63.5936 33.2354Z" fill="#7D919E"/>
<path d="M58.6225 26.3201C57.823 27.2054 57.8435 28.6866 58.0998 30.3343C58.069 28.0906 59.422 27.9504 60.2009 27.1791C61.2054 26.1799 59.545 25.2859 58.6225 26.3201Z" fill="#7D919E"/>
<path d="M64.5263 26.2676C66.2379 26.101 67.2629 27.5297 66.3199 28.7567C65.1925 30.2292 62.5174 30.8164 59.5245 31.3423C62.1996 30.5797 62.9273 29.6507 63.3681 28.5989C62.0766 28.4587 60.7852 28.5989 58.7763 30.2905C60.6724 28.2484 62.4866 26.4691 64.5365 26.2676L64.5263 26.2676Z" fill="#7D919E"/>
<path d="M55.5169 11.8147C55.4349 12.2529 54.8814 12.5246 54.4509 12.2003C54.2562 12.0513 54.1435 11.8322 54.1332 11.6044C54.1127 11.4554 54.164 10.8506 54.1127 10.6928C53.959 10.2108 53.795 9.95661 52.934 9.92155C54.3997 9.74626 55.7116 10.7717 55.5169 11.8059L55.5169 11.8147Z" fill="#7D919E"/>
<path d="M60.2522 36.9954C60.1087 36.3731 58.8378 34.962 56.4701 34.7605C56.6956 34.6728 56.9313 34.5852 57.1363 34.48C60.2214 32.9024 59.955 29.8172 57.2183 29.861C56.1421 29.8786 54.8199 30.7813 54.2357 31.3423C54.1229 31.4474 54 31.5701 53.8565 31.7104C57.1671 27.0388 55.3939 23.4191 54.7584 22.2358C53.549 19.9921 51.0583 17.4679 50.4639 15.0313C49.4286 11.1135 52.3293 8.86103 54.9224 10.4913C53.2517 8.95745 50.9661 9.35185 49.7156 11.0347C48.9674 12.0338 47.758 15.4783 50.0744 19.0543C49.2544 18.432 48.3114 17.9499 47.1635 17.8097C44.7856 17.5292 43.3199 18.7563 43.0022 19.8256C42.5819 21.2104 43.8529 21.4996 44.0989 20.9825C44.3756 20.4216 43.1867 20.2638 43.7196 19.3873C44.2526 18.5021 45.6568 18.0463 47.0917 18.2392C48.8137 18.467 50.3204 19.6678 51.2326 20.6319C51.3761 20.7809 51.5401 20.965 51.7246 21.1578C53.7335 24.1202 54.7379 27.4946 53.467 30.8251C52.811 32.543 51.6118 33.5772 50.3614 34.0593C47.4812 35.1549 45.0418 33.0075 45.0418 31.8418C45.0418 31.0969 46.3435 30.4833 45.913 29.4491C45.5133 28.4762 44.0374 28.8181 43.7709 29.975C43.5454 30.9303 43.8221 31.6315 44.0271 32.1574C45.1956 35.1899 49.0494 36.601 50.9456 36.7676C52.0525 36.8552 53.3747 36.6624 54.1024 36.566C55.1684 36.417 56.8391 36.0927 57.905 36.1014C58.5815 36.1014 59.6987 36.3381 60.2522 37.0042L60.2522 36.9954ZM50.1051 34.8393C52.2985 34.2258 54.0409 32.543 54.8199 31.7717C55.4349 31.1757 56.5623 30.5272 57.2388 30.5096C59.094 30.4833 59.1555 32.6832 56.7468 33.9103C54.9942 34.8043 52.3088 35.0585 50.1051 34.8306L50.1051 34.8393Z" fill="#C9B993"/>
<path d="M42.3052 19.1069C43.2789 18.5109 43.5659 17.3715 46.1795 17.6081C44.2731 17.24 42.5614 17.0822 41.4545 17.687C40.163 18.3882 41.0547 19.8694 42.3052 19.1156L42.3052 19.1069Z" fill="#7D919E"/>
<path d="M11.6897 11.543C10.8903 11.8235 10.839 12.1127 10.88 12.6123C10.8903 12.77 11.1772 13.3222 11.2182 13.4712C11.3002 13.6816 11.29 13.927 11.1567 14.1198C10.88 14.5405 10.2548 14.4528 10.0088 14.0672C9.41431 13.1469 10.2445 11.8059 11.6897 11.543Z" fill="#7D919E"/>
<path d="M9.22981 21.3243C17.3987 27.9416 25.7624 16.2496 37.6006 15.5923C41.7927 15.2066 48.0245 17.3627 50.0744 19.0367C50.4126 19.2734 51.6323 20.3251 52.2165 21.1227C52.6265 21.6837 52.9955 21.859 52.5855 21.0351C52.2268 20.3251 51.868 19.6941 51.3351 19.1069C49.8489 17.4766 47.6247 16.311 46.2103 15.6799C44.9906 15.1365 43.7299 14.672 42.5102 14.2162C41.106 13.6991 39.6506 13.1645 38.2771 12.5071C35.7762 11.3151 32.4758 8.16863 34.0543 4.71537C34.0953 4.62772 34.0543 4.53131 33.9415 4.49625L33.6648 4.39984C33.5931 4.37355 33.5213 4.37355 33.4598 4.39984C33.3881 4.42614 33.3368 4.46996 33.3163 4.53131C31.8301 7.8531 34.3413 10.8857 36.8012 12.4721C32.6603 11.7271 32.4861 14.707 34.577 15.4345C30.8667 16.2321 27.5151 17.836 24.4504 19.3172C22.626 20.0271 20.4121 20.553 18.2392 20.7634C15.2463 21.0526 13.3706 19.8343 13.2067 18.581C13.1144 17.8535 13.8626 17.5029 13.7294 16.8894C13.5961 16.2496 13.0529 16.1707 12.6737 16.4775C12.1715 16.8806 12.1612 17.8097 12.2535 18.2655C12.6634 20.255 14.9491 21.6048 18.3007 21.2892C19.2641 21.1928 20.2379 21.0351 21.1808 20.8335C17.1015 22.6039 13.5141 23.4103 10.183 20.5355C7.16965 17.6695 7.57964 14.1023 9.91654 12.3932C10.388 12.0426 11.9357 11.1836 13.6166 11.4466C14.3956 11.5693 15.1541 11.8673 15.7588 12.0251C16.4763 12.2003 17.7575 12.5422 18.8542 12.5772C20.7606 12.6298 24.7989 11.6569 26.4286 8.79091C26.7053 8.30009 27.0846 7.62522 27.0128 6.66111C26.9308 5.48665 25.5164 4.97831 24.9629 5.89859C24.3787 6.88023 25.5779 7.63398 25.4549 8.37021C25.2806 9.51837 22.5645 11.3064 19.8689 9.97414C18.0547 9.08015 17.2245 7.95827 16.4148 6.8364C15.9536 6.19659 14.7543 5.17112 13.6884 5.03089C10.9825 4.6803 10.2343 7.7041 13.0529 9.62355C13.0939 9.64984 13.1452 9.67613 13.1862 9.70243C11.0132 9.65861 9.45531 10.6753 8.85059 11.1311C5.86797 13.4099 5.38623 17.9236 9.21958 21.3243L9.22981 21.3243ZM37.2624 13.2521C38.9126 13.6553 40.5935 14.26 42.049 14.8034C42.1822 14.856 42.3154 14.9086 42.4487 14.9612C40.1015 14.6544 38.0824 14.821 36.3502 14.9612C33.1933 15.2154 32.8961 12.174 37.2624 13.2521ZM13.5756 5.68823C14.2521 5.77588 15.2668 6.54717 15.7793 7.21328C16.4353 8.06345 17.901 9.93908 19.9816 10.7892C17.7575 10.7629 15.1438 10.202 13.5449 9.1152C11.3515 7.62522 11.741 5.45159 13.5859 5.68823L13.5756 5.68823Z" fill="#C9B993"/>
<path d="M32.9883 7.65151C33.0191 5.40777 34.3618 5.28507 35.1715 4.53131C36.1964 3.54967 34.5668 2.62939 33.6136 3.64608C32.7936 4.51378 32.6501 6.4157 32.9883 7.65151Z" fill="#7D919E"/>
<path d="M7.3644 1.95431e-06C6.07296 1.83714e-06 5.07874 1.38481 4.9865 2.17363C4.64826 5.16236 7.72313 6.6611 10.0703 8.03715C7.85637 6.61728 5.21199 4.7066 5.67322 2.27004C5.76546 1.82304 6.1242 1.34975 6.41118 1.20952C6.87241 0.981642 6.96466 1.47246 7.47715 1.46369C7.98963 1.46369 8.30736 0.929052 8.24587 0.552176C8.19461 0.289236 7.93837 0.00876818 7.3644 0.00876813L7.3644 1.95431e-06Z" fill="#C9B993"/>
<path d="M0.425433 12.9629C-0.425275 12.1302 0.158954 10.5701 0.794421 10.0004C3.22357 7.82681 6.54444 8.8435 9.30158 9.46579C6.60594 8.95744 3.18259 8.49292 1.32741 10.3948C0.989169 10.7367 0.80469 11.2888 0.866183 11.5693C0.968677 12.0163 1.4504 11.7621 1.77838 12.0952C2.10637 12.4282 1.85013 12.9892 1.4709 13.1907C1.20441 13.331 0.794421 13.3485 0.404941 12.9716L0.425433 12.9629Z" fill="#C9B993"/>
<path d="M6.29843 11.8848C7.61038 11.9637 9.03508 11.1223 10.4905 10.0267C8.32787 11.2976 7.43614 10.4211 6.25745 10.2897C4.73026 10.1319 4.7815 11.8059 6.29843 11.8936L6.29843 11.8848Z" fill="#7D919E"/>
<path d="M10.2445 4.50501C11.167 5.3026 11.3617 6.76628 11.331 8.44033C11.044 6.21411 9.69104 6.21411 8.79934 5.53047C7.66164 4.64525 9.17859 3.58473 10.2445 4.51378L10.2445 4.50501Z" fill="#7D919E"/>
<path d="M4.37152 5.05718C2.65984 5.07471 1.83988 6.59099 2.95708 7.71286C4.28952 9.06261 7.02616 9.36061 10.0703 9.57096C7.30291 9.08891 6.4522 8.2475 5.87822 7.24834C7.13892 6.97664 8.4406 6.97664 10.675 8.44909C8.50209 6.61729 6.4522 5.03966 4.38178 5.05718L4.37152 5.05718Z" fill="#7D919E"/>
<path d="M25.0654 29.4666C26.2544 29.6156 26.4389 30.7024 28.1198 30.2116C27.1358 30.7813 26.3261 31.0881 25.0347 30.9128C23.528 30.7112 23.8662 29.3264 25.0757 29.4754L25.0654 29.4666Z" fill="#7D919E"/>
<path d="M26.2646 30.904C28.5605 30.5885 29.401 29.0372 29.6367 27.3018C30.0057 27.889 30.4977 28.4061 31.1331 28.8356C32.6603 29.8786 34.8435 30.3431 37.1189 30.1065C38.7896 29.9312 41.0445 29.1161 41.885 27.3894C42.3974 26.3377 42.008 24.9266 40.6448 25.1544C39.7428 25.3034 39.6608 26.0572 39.5891 26.7759C39.4968 27.6611 39.3841 28.6691 38.0414 29.265C37.7031 29.3527 37.3546 29.414 37.0267 29.4491C34.6795 29.6857 32.1786 29.1599 30.7334 27.5209C31.7686 28.2659 33.0908 28.0292 33.7263 26.9424C34.4438 25.7241 33.552 24.2429 33.552 23.0948C33.552 20.7984 34.7718 18.581 36.6679 17.4328C37.4571 16.9595 39.0971 15.9604 41.8235 15.9604C42.3974 15.9604 43.1764 16.013 43.9861 16.1094C44.9803 16.2233 46.0053 16.3986 46.7125 16.5914C47.3787 16.7755 47.389 16.6352 46.8355 16.3723C46.323 16.1269 45.3493 15.7851 43.9861 15.4695C41.1367 14.8297 37.0779 15.2066 35.4892 15.5309C30.3132 16.5827 27.5663 19.9483 27.0333 22.9545C26.5516 25.654 28.5503 30.2905 26.2646 30.8953L26.2646 30.904ZM32.7833 23.0948C32.7833 24.2692 33.593 25.7066 33.0396 26.6532C32.4553 27.6524 31.0819 27.5297 30.4362 25.9783C29.934 24.7776 30.2004 22.4637 31.6661 20.5443C32.5271 19.4136 33.8903 18.2742 35.52 17.389C33.8288 18.73 32.7731 20.8861 32.7833 23.0948Z" fill="#C9B993"/>
</svg>
